<svg xmlns="http://www.w3.org/2000/svg" xmlns:xlink="http://www.w3.org/1999/xlink" width="500" zoomAndPan="magnify" viewBox="0 0 375 374.999991" height="500" preserveAspectRatio="xMidYMid meet" version="1.2"><defs><clipPath id="cc88090726"><path d="M 16 47 L 360 47 L 360 329.917969 L 16 329.917969 Z M 16 47 "/></clipPath></defs><g id="48cfada98e"><g clip-rule="nonzero" clip-path="url(#cc88090726)"><path style=" stroke:none;fill-rule:nonzero;fill:#ff00f4;fill-opacity:1;" d="M 182.222656 114.648438 C 170.703125 115.085938 154.34375 117.496094 139.152344 125.058594 C 106.699219 141.21875 90.945312 174.957031 99.148438 210.347656 C 103.359375 228.488281 111.605469 244.296875 125.160156 257.25 C 129.839844 261.621094 134.28125 266.226562 138.476562 271.066406 C 144.175781 277.816406 141.628906 286.199219 133.5 288.722656 C 129.660156 289.929688 126.390625 288.945312 123.519531 286.421875 C 121.039062 284.21875 118.734375 281.816406 116.445312 279.40625 C 114.984375 277.867188 113.371094 276.554688 111.246094 276.449219 C 109.117188 276.339844 107.628906 277.492188 108.804688 279.78125 C 109.789062 281.574219 111.011719 283.191406 112.472656 284.625 C 118.203125 290.46875 124.046875 296.1875 129.824219 301.984375 C 132.019531 304.179688 133.878906 306.527344 134.183594 309.835938 C 134.570312 313.914062 133.878906 317.511719 130.34375 320.007812 C 129.523438 320.632812 128.628906 321.125 127.664062 321.484375 C 126.695312 321.839844 125.695312 322.050781 124.664062 322.109375 C 123.636719 322.171875 122.617188 322.078125 121.617188 321.835938 C 120.613281 321.59375 119.667969 321.207031 118.777344 320.683594 C 116.367188 319.21875 114.1875 317.464844 112.242188 315.417969 C 107.875 311.109375 103.6875 306.613281 99.378906 302.242188 C 97.773438 300.59375 96.082031 299.035156 94.3125 297.566406 C 92.613281 296.179688 90.601562 295.386719 88.933594 297.421875 C 87.398438 299.226562 88.8125 300.824219 90.003906 302.136719 C 92.929688 305.34375 96.238281 308.277344 98.871094 311.671875 C 103.894531 318.21875 101.09375 326.257812 93.320312 328.675781 C 92.53125 328.964844 91.71875 329.132812 90.882812 329.183594 C 90.042969 329.234375 89.214844 329.167969 88.398438 328.980469 C 87.582031 328.792969 86.804688 328.492188 86.074219 328.078125 C 85.34375 327.667969 84.6875 327.160156 84.105469 326.558594 C 74.996094 317.589844 65.863281 308.636719 57.03125 299.402344 C 53.46875 295.671875 51.933594 290.597656 50.25 285.769531 C 49.753906 284.324219 49.445312 282.8125 49.046875 281.332031 C 48.453125 279.152344 48.199219 276.164062 45.152344 276.664062 C 42.101562 277.164062 42.902344 280.109375 42.910156 282.34375 C 42.910156 289.148438 41.503906 290.359375 34.808594 289.214844 C 33.574219 289.011719 32.371094 288.707031 31.191406 288.304688 C 30.007812 287.898438 28.871094 287.394531 27.773438 286.800781 C 26.679688 286.203125 25.640625 285.519531 24.660156 284.746094 C 23.679688 283.976562 22.769531 283.128906 21.929688 282.203125 C 21.09375 281.28125 20.335938 280.292969 19.664062 279.242188 C 18.992188 278.191406 18.414062 277.089844 17.925781 275.941406 C 17.4375 274.792969 17.050781 273.613281 16.761719 272.398438 C 16.472656 271.183594 16.289062 269.957031 16.207031 268.710938 C 14.578125 241.273438 25.105469 218.746094 45.175781 200.691406 C 52.25 194.328125 57.507812 187.480469 60.664062 178.429688 C 66.371094 162.121094 75.980469 147.882812 86.007812 133.960938 C 91.746094 126.023438 96.40625 117.625 98.1875 107.785156 C 99.285156 102.21875 99.382812 96.640625 98.488281 91.039062 C 97.90625 87.765625 97.492188 84.46875 97.253906 81.152344 C 96.40625 67.871094 102.859375 56.585938 114.261719 51.027344 C 126.183594 45.261719 139.414062 46.980469 149.308594 55.710938 C 151.441406 57.550781 153.390625 59.574219 155.152344 61.773438 C 169.589844 80.382812 203.78125 80.367188 219.363281 62.390625 C 221.183594 60.242188 223.128906 58.210938 225.191406 56.292969 C 235.746094 46.726562 249.820312 44.976562 262.171875 51.59375 C 263.617188 52.367188 264.988281 53.246094 266.289062 54.242188 C 267.589844 55.234375 268.804688 56.328125 269.925781 57.519531 C 271.050781 58.707031 272.070312 59.984375 272.984375 61.339844 C 273.902344 62.695312 274.699219 64.117188 275.382812 65.605469 C 276.070312 67.09375 276.628906 68.625 277.0625 70.203125 C 277.496094 71.78125 277.800781 73.382812 277.972656 75.011719 C 278.148438 76.640625 278.1875 78.269531 278.09375 79.90625 C 278.003906 81.539062 277.777344 83.15625 277.421875 84.753906 C 273.5 102.855469 277.945312 118.601562 288.613281 133.117188 C 300.339844 149.046875 310.417969 165.867188 317.027344 184.632812 C 318.847656 189.8125 322.257812 193.796875 326.550781 197.320312 C 345.652344 212.976562 356.503906 233.25 359.246094 257.753906 C 360.367188 267.734375 359.359375 277.199219 350.898438 284.324219 C 346.988281 287.617188 342.449219 288.863281 337.527344 289.4375 C 334.023438 289.851562 332.21875 288.308594 332.105469 284.753906 C 332.011719 281.839844 333.433594 277.371094 329.5625 276.949219 C 324.753906 276.425781 326.167969 281.601562 325.316406 284.433594 C 323.296875 291.140625 320.460938 297.375 315.492188 302.414062 C 308.136719 309.886719 300.710938 317.304688 293.222656 324.675781 C 290.210938 327.640625 286.691406 329.789062 282.238281 328.90625 C 274.304688 327.371094 271.003906 318.105469 276.09375 311.449219 C 278.097656 308.816406 280.640625 306.605469 282.929688 304.195312 C 284.34375 302.710938 285.742188 301.191406 286.277344 299.140625 C 286.449219 298.644531 286.460938 298.140625 286.316406 297.636719 C 286.167969 297.128906 285.886719 296.714844 285.472656 296.386719 C 285.28125 296.214844 285.0625 296.082031 284.824219 295.984375 C 284.585938 295.886719 284.335938 295.832031 284.078125 295.824219 C 283.820312 295.8125 283.570312 295.84375 283.324219 295.921875 C 283.078125 296 282.851562 296.117188 282.644531 296.269531 C 281.230469 297.363281 279.890625 298.539062 278.621094 299.792969 C 273.515625 304.816406 268.46875 309.890625 263.355469 314.902344 C 261.59375 316.757812 259.695312 318.460938 257.65625 320.007812 C 252.816406 323.394531 246.710938 322.734375 243.0625 318.679688 C 239.570312 314.839844 239.324219 309.128906 242.933594 304.632812 C 245.734375 301.308594 248.699219 298.132812 251.820312 295.105469 C 255.042969 291.816406 258.386719 288.648438 261.640625 285.386719 C 262.9375 284.152344 264.140625 282.832031 265.242188 281.421875 C 266.339844 279.949219 267.164062 278.128906 265.40625 276.640625 C 263.921875 275.382812 262.417969 276.503906 261.3125 277.46875 C 258.238281 280.148438 255.335938 283.066406 252.25 285.738281 C 249.699219 287.949219 246.871094 289.84375 243.238281 289.054688 C 239.347656 288.203125 235.761719 286.699219 234.625 282.421875 C 233.488281 278.144531 233.449219 273.753906 236.925781 270.230469 C 242.132812 264.949219 247.519531 259.84375 252.601562 254.445312 C 274.613281 231.085938 282.554688 203.441406 275.058594 172.394531 C 268.269531 144.1875 248.292969 127.921875 221.453125 119.523438 C 210.453125 116.074219 199.042969 114.386719 182.222656 114.648438 Z M 147.027344 79.394531 C 147.226562 68.5625 139.453125 60.476562 128.59375 60.285156 C 117.886719 60.085938 109.273438 68.199219 109.171875 78.574219 C 109.078125 89.113281 117.480469 97.878906 127.695312 97.894531 C 138.425781 97.917969 146.828125 89.878906 147.027344 79.394531 Z M 265.367188 78.925781 C 265.367188 67.886719 257.578125 60.207031 246.457031 60.230469 C 236.550781 60.230469 227.605469 68.9375 227.535156 78.59375 C 227.539062 79.21875 227.574219 79.839844 227.636719 80.457031 C 227.703125 81.078125 227.796875 81.691406 227.917969 82.304688 C 228.042969 82.914062 228.195312 83.515625 228.375 84.113281 C 228.554688 84.707031 228.765625 85.292969 229.003906 85.867188 C 229.238281 86.445312 229.503906 87.007812 229.796875 87.558594 C 230.085938 88.109375 230.40625 88.644531 230.746094 89.164062 C 231.089844 89.683594 231.457031 90.183594 231.847656 90.667969 C 232.238281 91.152344 232.652344 91.617188 233.089844 92.0625 C 233.523438 92.507812 233.980469 92.929688 234.457031 93.332031 C 234.933594 93.734375 235.429688 94.109375 235.941406 94.464844 C 236.453125 94.816406 236.980469 95.144531 237.527344 95.449219 C 238.070312 95.75 238.628906 96.027344 239.199219 96.277344 C 239.769531 96.527344 240.351562 96.746094 240.941406 96.941406 C 241.535156 97.132812 242.136719 97.296875 242.742188 97.433594 C 243.351562 97.570312 243.964844 97.675781 244.582031 97.753906 C 245.199219 97.832031 245.820312 97.878906 246.441406 97.894531 C 256.671875 98.125 265.382812 89.398438 265.367188 78.925781 Z M 136.097656 296.09375 C 164.988281 314.265625 218.570312 311.257812 239.476562 295.058594 C 228.910156 292.402344 227.527344 283.394531 225.359375 274.4375 C 199.757812 285.398438 174.613281 284.933594 148.378906 274.253906 C 149.214844 285.199219 143.617188 291.21875 136.097656 296.09375 Z M 255.296875 156.832031 C 248.890625 147.144531 239.890625 140.550781 229.546875 135.710938 C 211.351562 127.199219 192.078125 125.648438 172.515625 127.957031 C 154.589844 130.070312 138.347656 136.511719 125.4375 149.800781 C 122.023438 153.316406 119.292969 157.300781 117.25 161.753906 C 115.792969 164.886719 116.722656 167.410156 119.21875 169.152344 C 121.714844 170.898438 124.59375 170.445312 126.898438 168.269531 C 127.800781 167.363281 128.597656 166.367188 129.292969 165.292969 C 137.15625 153.777344 148.238281 146.867188 161.417969 143.097656 C 168.695312 140.984375 176.121094 139.765625 183.695312 139.449219 C 191.269531 139.132812 198.769531 139.726562 206.199219 141.226562 C 222.8125 144.535156 237.050781 151.894531 246.621094 166.558594 C 247.269531 167.671875 248.089844 168.636719 249.085938 169.453125 C 251.171875 170.988281 253.453125 170.644531 255.597656 169.453125 C 256.09375 169.210938 256.542969 168.898438 256.941406 168.515625 C 257.34375 168.132812 257.671875 167.695312 257.933594 167.207031 C 258.191406 166.71875 258.371094 166.203125 258.464844 165.65625 C 258.5625 165.113281 258.570312 164.566406 258.492188 164.019531 C 258.414062 161.546875 256.847656 159.175781 255.296875 156.832031 Z M 139.90625 78.902344 C 139.90625 72.078125 135.121094 67.386719 128.386719 67.441406 C 121.261719 67.523438 116.652344 72.59375 117.066406 79.902344 C 117.421875 86.425781 122.210938 91.03125 128.441406 90.839844 C 129.207031 90.816406 129.960938 90.714844 130.707031 90.542969 C 131.453125 90.371094 132.175781 90.128906 132.875 89.816406 C 133.574219 89.503906 134.238281 89.128906 134.867188 88.691406 C 135.492188 88.25 136.070312 87.753906 136.601562 87.199219 C 137.132812 86.648438 137.601562 86.050781 138.019531 85.40625 C 138.433594 84.761719 138.78125 84.085938 139.066406 83.375 C 139.347656 82.664062 139.5625 81.933594 139.703125 81.179688 C 139.84375 80.425781 139.914062 79.667969 139.90625 78.902344 Z M 235.46875 79.132812 C 235.558594 85.710938 240.707031 91.117188 246.863281 91.101562 C 252.792969 91.101562 258.261719 85.289062 258.285156 78.980469 C 258.285156 72.332031 253.460938 67.554688 246.65625 67.53125 C 239.628906 67.488281 235.359375 71.917969 235.46875 79.132812 Z M 235.46875 79.132812 "/></g></g></svg>